# xmcd
#
# Track frame offsets:
#	150
#	13850
#	26361
#	41750
#	53996
#	64786
#	78542
#	95056
#	103572
#	115115
#	126930
#	139628
#	152552
#	165871
#	181599
#	202803
#	215391
#	229733
#	241675
#
# Disc length: 3363 seconds
#
# Revision: 0
# Processed by: cddbd v1.5.2PL0 Copyright (c) Steve Scherf et al.
# Submitted via: EasyCDDAExtractor 16.0.8.2
#
DISCID=ed0d2113
DTITLE=Συλλογικός δίσκος - Τα ωραιότερα ιταλικά τραγούδια 8
DYEAR=2011
DGENRE=Ξένη ιταλική
TTITLE0=Renato Carosone - Mambo Italiano
TTITLE1=Adriano Celentano - Nata per me
TTITLE2=Mina - Una zebra a pois
TTITLE3=Marino Marini - La panse
TTITLE4=Connie Francis - Funiculi, funicula
TTITLE5=Renato Carosone - Torero
TTITLE6=Miranda Martino - Stringiti alla mia mano
TTITLE7=Adriano Celentano - Auli ule
TTITLE8=Fausto Papetti - Estate violenta
TTITLE9=Marino Marini - Lettera a Pinocchio
TTITLE10=Caterina Valente - Volevo un tango
TTITLE11=Gino Paoli - Il cielo in una stanza
TTITLE12=Connie Francis - Come back to Sorrento
TTITLE13=Domenico Modugno - Musseto
TTITLE14=Umberto Bindi - E vero
TTITLE15=Marino Marini - Pimpollo
TTITLE16=Peppino di Capri - Piove
TTITLE17=Domenico Modugno - Io
TTITLE18=Fred Buscaglione - Guarda che luna
EXTD=
EXTT0=
EXTT1=
EXTT2=
EXTT3=
EXTT4=
EXTT5=
EXTT6=
EXTT7=
EXTT8=
EXTT9=
EXTT10=
EXTT11=
EXTT12=
EXTT13=
EXTT14=
EXTT15=
EXTT16=
EXTT17=
EXTT18=
PLAYORDER=
